# xmcd
#
# Track frame offsets: 
#        150
#        4634
#        22923
#        44417
#        64228
#        85259
#        103464
#        117632
#        120699
#        142132
#        160541
#        181349
#        201326
#        220975
#        238665
#
# Disc length: 3565 seconds
#
# Revision: 2
# Processed by: cddbd v1.5.2PL0 Copyright (c) Steve Scherf et al.
# Submitted via: ExactAudioCopy v0.95b4
#
DISCID=da0deb0f
DTITLE=USO - Mr. Mista
DYEAR=2001
DGENRE=Rap
TTITLE0=Preview
TTITLE1=Mr. Mista
TTITLE2=Hvem Er Den Spiller?
TTITLE3=Igår Var Det En Vild Nat
TTITLE4=Homies and Kællinger
TTITLE5=Er Du En Stjerne?
TTITLE6=Kaster Dubs
TTITLE7=Undskyld So (skit)
TTITLE8=Undskyld So - Snakker Du Til Os?
TTITLE9=Playersvarer
TTITLE10=Den Forbudte Dans
TTITLE11=Lad Være Med At Dømme Mig
TTITLE12=Whoop Whoop
TTITLE13=Vi Ved Hvordan Man Gør Det
TTITLE14=Outro
EXTD=YEAR: 2001 ID3G: 7
EXTT0=
EXTT1=
EXTT2=
EXTT3=
EXTT4=
EXTT5=
EXTT6=
EXTT7=
EXTT8=
EXTT9=
EXTT10=
EXTT11=
EXTT12=
EXTT13=
EXTT14=
PLAYORDER=
